<svg width="24" height="28" viewBox="0 0 24 28" fill="none" xmlns="http://www.w3.org/2000/svg">
<path d="M15.325 0.56875C13.4438 1.50938 12.2188 3.28125 11.8907 5.5125L11.7375 6.5625H12.525C14.9094 6.5625 17.3375 4.00312 17.6219 1.18125L17.7532 0H17.0969C16.7469 0 15.9594 0.2625 15.325 0.56875Z" fill="#333333"/>
<path d="M15.2813 7C14.4938 7.24063 13.4438 7.525 12.9625 7.67813C12.1532 7.91875 11.8688 7.89688 10.2938 7.37188C8.17191 6.67188 6.75003 6.62813 5.15316 7.21875C0.975033 8.79375 -0.643717 14.3938 1.39066 20.3656C2.33128 23.1438 4.32191 26.1844 5.91878 27.3438C7.03441 28.1531 8.28128 28.2188 10.1625 27.5406C11.8032 26.9719 13.2907 26.9719 14.9313 27.5406C16.8782 28.2406 18.1032 28.1531 19.2625 27.2781C20.3344 26.4469 21.7563 24.5438 22.675 22.6406C23.6594 20.65 23.6813 20.4531 23.0688 20.1688C21.1438 19.2938 19.875 17.15 19.875 14.7656C19.875 12.8625 20.3344 11.7906 21.6907 10.5438C22.2594 10.0406 22.7188 9.5375 22.7188 9.42813C22.7188 9.31875 22.2594 8.8375 21.7125 8.33438C20.0063 6.84688 17.6 6.34375 15.2813 7Z" fill="#333333"/>
</svg>
