<svg width="20" height="18" viewBox="0 0 20 18" fill="none" xmlns="http://www.w3.org/2000/svg">
<path d="M1 6C1 4.89543 1.89543 4 3 4H3.92963C4.59834 4 5.2228 3.6658 5.59373 3.1094L6.40627 1.8906C6.7772 1.3342 7.40166 1 8.07037 1H11.9296C12.5983 1 13.2228 1.3342 13.5937 1.8906L14.4063 3.1094C14.7772 3.6658 15.4017 4 16.0704 4H17C18.1046 4 19 4.89543 19 6V15C19 16.1046 18.1046 17 17 17H3C1.89543 17 1 16.1046 1 15V6Z" stroke="white" stroke-linecap="round" stroke-linejoin="round"/>
<path d="M13 10C13 11.6569 11.6569 13 10 13C8.34315 13 7 11.6569 7 10C7 8.34315 8.34315 7 10 7C11.6569 7 13 8.34315 13 10Z" stroke="white" stroke-linecap="round" stroke-linejoin="round"/>
</svg>
