<svg width="18" height="19" viewBox="0 0 18 19" fill="none" xmlns="http://www.w3.org/2000/svg">
<path d="M15.75 12.1594C15.3578 12.1594 14.9656 12.2729 14.625 12.5C13.9438 12.9542 13.0562 12.9542 12.375 12.5C11.6938 12.0458 10.8062 12.0458 10.125 12.5C9.44375 12.9542 8.55625 12.9542 7.875 12.5C7.19375 12.0458 6.30625 12.0458 5.625 12.5C4.94375 12.9542 4.05625 12.9542 3.375 12.5C3.03438 12.2729 2.64219 12.1594 2.25 12.1594M6.75 5V6.5M9 5V6.5M11.25 5V6.5M6.75 2.75H6.7575M9 2.75H9.0075M11.25 2.75H11.2575M15.75 16.25V11C15.75 10.1716 15.0784 9.5 14.25 9.5H3.75C2.92157 9.5 2.25 10.1716 2.25 11V16.25H15.75ZM13.5 9.5V8C13.5 7.17157 12.8284 6.5 12 6.5H6C5.17157 6.5 4.5 7.17157 4.5 8V9.5H13.5Z" stroke="#333333" stroke-linecap="round" stroke-linejoin="round"/>
</svg>
