<svg width="100" height="100" viewBox="0 0 100 100" fill="none" xmlns="http://www.w3.org/2000/svg">
<g id="Icon/Solid/exclamation-circle">
<path id="Icon" fill-rule="evenodd" clip-rule="evenodd" d="M90 50C90 72.0914 72.0914 90 50 90C27.9086 90 10 72.0914 10 50C10 27.9086 27.9086 10 50 10C72.0914 10 90 27.9086 90 50ZM55 70C55 72.7614 52.7614 75 50 75C47.2386 75 45 72.7614 45 70C45 67.2386 47.2386 65 50 65C52.7614 65 55 67.2386 55 70ZM50 25C47.2386 25 45 27.2386 45 30V50C45 52.7614 47.2386 55 50 55C52.7614 55 55 52.7614 55 50V30C55 27.2386 52.7614 25 50 25Z" fill="#0668E3"/>
</g>
</svg>
