<svg width="18" height="18" viewBox="0 0 18 18" fill="none" xmlns="http://www.w3.org/2000/svg">
<path d="M2.25006 2.25L4.94193 4.94187M15.7501 15.75L13.0585 13.0584M10.4062 14.1185C9.95084 14.2048 9.4809 14.25 9.00041 14.25C5.64217 14.25 2.79944 12.0428 1.84375 8.99997C2.10392 8.17162 2.50394 7.40521 3.01614 6.72839M7.40907 7.40901C7.81624 7.00184 8.37874 6.75 9.00006 6.75C10.2427 6.75 11.2501 7.75736 11.2501 9C11.2501 9.62132 10.9982 10.1838 10.5911 10.591M7.40907 7.40901L10.5911 10.591M7.40907 7.40901L4.94193 4.94187M10.5911 10.591L4.94193 4.94187M10.5911 10.591L13.0585 13.0584M4.94193 4.94187C6.1118 4.18766 7.50498 3.75 9.00039 3.75C12.3586 3.75 15.2014 5.95719 16.157 9.00003C15.6269 10.688 14.516 12.1189 13.0585 13.0584" stroke="#A7A7A7" stroke-linecap="round" stroke-linejoin="round"/>
</svg>
