<svg width="18" height="19" viewBox="0 0 18 19" fill="none" xmlns="http://www.w3.org/2000/svg">
<path d="M14.25 2.75L10.5 6.5M14.25 2.75H11.25M14.25 2.75V5.75M8.25 12.5V17M6 14.75H10.5M5.25 8.75C5.25 9.54565 5.56607 10.3087 6.12868 10.8713C6.69129 11.4339 7.45435 11.75 8.25 11.75C9.04565 11.75 9.80871 11.4339 10.3713 10.8713C10.9339 10.3087 11.25 9.54565 11.25 8.75C11.25 7.95435 10.9339 7.19129 10.3713 6.62868C9.80871 6.06607 9.04565 5.75 8.25 5.75C7.45435 5.75 6.69129 6.06607 6.12868 6.62868C5.56607 7.19129 5.25 7.95435 5.25 8.75Z" stroke="#333333" stroke-linecap="round" stroke-linejoin="round"/>
</svg>
