<svg width="28" height="28" viewBox="0 0 28 28" fill="none" xmlns="http://www.w3.org/2000/svg">
<g clip-path="url(#clip0_34_139)">
<path d="M0.91875 8.68438C0.284375 10.2375 0 11.8125 0 14C0 16.2531 0.284375 17.7844 1.00625 19.425C1.59688 20.7813 1.26875 20.8906 4.33125 18.3969C6.19063 16.8875 6.3 16.7563 6.10313 16.2313C5.84063 15.5531 5.775 13.0594 5.99375 12.1188C6.14688 11.4406 6.08125 11.3531 3.87188 9.5375C2.60313 8.50938 1.53125 7.65625 1.46563 7.65625C1.42188 7.65625 1.15938 8.11563 0.91875 8.68438Z" fill="#FFB701"/>
<path d="M10.4344 0.349997C8.24687 0.874996 5.75312 2.31875 4.04688 4.04687C3.21562 4.9 2.29688 6.01562 2.0125 6.49687L1.53125 7.39375L3.87188 9.34062L6.2125 11.3094L6.71562 10.2812C8.61875 6.45312 13.4312 4.79062 17.4125 6.54062C17.9812 6.80312 18.4625 7 18.4844 7C18.6156 7 22.8594 3.45625 22.925 3.30312C23.1219 2.77812 19.6219 0.896872 17.4781 0.349997C15.7281 -0.0875034 12.2063 -0.0875034 10.4344 0.349997Z" fill="#D7263D"/>
<path d="M3.89378 18.9656C2.77815 19.8844 1.81565 20.6719 1.7719 20.7156C1.53128 20.8906 2.66878 22.5094 4.09065 23.9312C5.84065 25.7031 8.20315 27.0594 10.6094 27.6719C12.2719 28.0875 15.4657 28.0875 17.2813 27.65C18.725 27.3219 21.3719 26.1406 22.2688 25.4187L22.7719 25.025L20.65 23.2969C17.9375 21.0875 18.0688 21.1312 17.3032 21.525C15.5313 22.4656 12.6 22.3781 10.4125 21.35C9.16565 20.7812 7.17503 18.9 6.78128 17.9156C6.62815 17.5656 6.38753 17.2812 6.2344 17.2812C6.08128 17.2812 5.03128 18.025 3.89378 18.9656Z" fill="#2BA24C"/>
<path d="M14.2188 14.2188V17.0625H17.9594H21.6781L21.1969 17.9375C20.7156 18.7688 19.425 20.1906 18.55 20.825C18.2 21.0875 18.4187 21.3063 20.5187 23.0125L22.8594 24.8938L23.45 24.4563C24.3469 23.8219 25.9656 21.6344 26.6875 20.0813C27.7156 17.8938 28.0219 16.2969 27.9563 13.7375L27.8906 11.4844L21.0656 11.4188L14.2188 11.375V14.2188Z" fill="#3886E9"/>
</g>
<defs>
<clipPath id="clip0_34_139">
<rect width="28" height="28" fill="white"/>
</clipPath>
</defs>
</svg>
