<svg width="24" height="24" viewBox="0 0 24 24" fill="none" xmlns="http://www.w3.org/2000/svg">
<path fill-rule="evenodd" clip-rule="evenodd" d="M11.9984 21.6C17.3004 21.6 21.5984 17.3019 21.5984 12C21.5984 6.69806 17.3004 2.39999 11.9984 2.39999C6.6965 2.39999 2.39844 6.69806 2.39844 12C2.39844 17.3019 6.6965 21.6 11.9984 21.6ZM12.9984 7.19999C12.9984 6.64771 12.5507 6.19999 11.9984 6.19999C11.4462 6.19999 10.9984 6.64771 10.9984 7.19999V12C10.9984 12.2652 11.1038 12.5196 11.2913 12.7071L14.6854 16.1012C15.076 16.4917 15.7091 16.4917 16.0997 16.1012C16.4902 15.7107 16.4902 15.0775 16.0997 14.687L12.9984 11.5858V7.19999Z" fill="white"/>
</svg>
