<svg width="20" height="20" viewBox="0 0 20 20" fill="none" xmlns="http://www.w3.org/2000/svg">
<path d="M10.8485 0.751374C10.3799 0.282745 9.6201 0.282745 9.15147 0.751374L0.751466 9.15137C0.282837 9.62 0.282837 10.3798 0.751466 10.8484C1.22009 11.3171 1.97989 11.3171 2.44852 10.8484L2.79999 10.497V18.3999C2.79999 19.0626 3.33725 19.5999 3.99999 19.5999H6.39999C7.06274 19.5999 7.59999 19.0626 7.59999 18.3999V15.9999C7.59999 15.3372 8.13725 14.7999 8.79999 14.7999H11.2C11.8627 14.7999 12.4 15.3372 12.4 15.9999V18.3999C12.4 19.0626 12.9373 19.5999 13.6 19.5999H16C16.6627 19.5999 17.2 19.0626 17.2 18.3999V10.497L17.5515 10.8484C18.0201 11.3171 18.7799 11.3171 19.2485 10.8484C19.7172 10.3798 19.7172 9.62 19.2485 9.15137L10.8485 0.751374Z" fill="white"/>
</svg>
