<svg width="80" height="80" viewBox="0 0 80 80" fill="none" xmlns="http://www.w3.org/2000/svg">
<path fill-rule="evenodd" clip-rule="evenodd" d="M80 40C80 62.0914 62.0914 80 40 80C17.9086 80 0 62.0914 0 40C0 17.9086 17.9086 0 40 0C62.0914 0 80 17.9086 80 40ZM45 60C45 62.7614 42.7614 65 40 65C37.2386 65 35 62.7614 35 60C35 57.2386 37.2386 55 40 55C42.7614 55 45 57.2386 45 60ZM40 15C37.2386 15 35 17.2386 35 20V40C35 42.7614 37.2386 45 40 45C42.7614 45 45 42.7614 45 40V20C45 17.2386 42.7614 15 40 15Z" fill="#0668E3"/>
</svg>
