<svg width="18" height="19" viewBox="0 0 18 19" fill="none" xmlns="http://www.w3.org/2000/svg">
<path d="M2.25 4.25C2.25 3.42157 2.92157 2.75 3.75 2.75H6.20943C6.53225 2.75 6.81886 2.95657 6.92094 3.26283L8.0443 6.63291C8.16233 6.98699 8.00203 7.37398 7.6682 7.5409L5.97525 8.38737C6.80194 10.2209 8.27909 11.6981 10.1126 12.5247L10.9591 10.8318C11.126 10.498 11.513 10.3377 11.8671 10.4557L15.2372 11.5791C15.5434 11.6811 15.75 11.9677 15.75 12.2906V14.75C15.75 15.5784 15.0784 16.25 14.25 16.25H13.5C7.2868 16.25 2.25 11.2132 2.25 5V4.25Z" stroke="#333333" stroke-linecap="round" stroke-linejoin="round"/>
</svg>
