<svg width="20" height="20" viewBox="0 0 20 20" fill="none" xmlns="http://www.w3.org/2000/svg">
<path fill-rule="evenodd" clip-rule="evenodd" d="M19.6004 10.0004C19.6004 15.3023 15.3023 19.6004 10.0004 19.6004C4.69846 19.6004 0.400391 15.3023 0.400391 10.0004C0.400391 4.69846 4.69846 0.400391 10.0004 0.400391C15.3023 0.400391 19.6004 4.69846 19.6004 10.0004ZM12.4004 6.40039C12.4004 7.72587 11.3259 8.80039 10.0004 8.80039C8.67491 8.80039 7.60039 7.72587 7.60039 6.40039C7.60039 5.07491 8.67491 4.00039 10.0004 4.00039C11.3259 4.00039 12.4004 5.07491 12.4004 6.40039ZM10.0003 11.2004C7.57926 11.2004 5.49312 12.6343 4.54487 14.6993C5.86523 16.2308 7.81957 17.2004 10.0004 17.2004C12.1811 17.2004 14.1354 16.2309 15.4558 14.6993C14.5076 12.6344 12.4214 11.2004 10.0003 11.2004Z" fill="white"/>
</svg>
