<svg width="24" height="24" viewBox="0 0 24 24" fill="none" xmlns="http://www.w3.org/2000/svg">
<path d="M10.7891 0.10387C10.7171 0.181792 10.6727 0.353221 10.6339 0.753221L10.5785 1.29348L10.4067 1.32984C10.3125 1.34543 10.052 1.43894 9.82478 1.53764C9.59756 1.63634 9.39804 1.71426 9.37033 1.71426C9.34816 1.71426 9.14865 1.574 8.93251 1.40257C8.52239 1.08049 8.35613 1.00777 8.17324 1.05971C8.11228 1.0753 7.75204 1.39218 7.3641 1.75582C6.48845 2.58699 6.48291 2.59738 7.01495 3.19997L7.3641 3.60517L7.18675 3.96881C7.08699 4.1714 6.98169 4.42595 6.9429 4.52984C6.86531 4.75322 6.84314 4.76361 6.19472 4.81036C5.46871 4.86231 5.49642 4.81556 5.49642 6.06751C5.49642 6.99218 5.5075 7.11166 5.59617 7.18439C5.6793 7.25712 6.41086 7.3766 6.78218 7.3766C6.84314 7.3766 6.9041 7.46491 6.97061 7.64673C7.02049 7.79738 7.13687 8.05192 7.22 8.21816L7.37518 8.50906L7.02049 8.91945C6.48291 9.52725 6.48291 9.52725 7.39735 10.3792C8.30071 11.2208 8.28408 11.2208 8.93251 10.7272L9.37587 10.3896L9.63635 10.5091C9.78599 10.5818 10.0575 10.6909 10.2515 10.7532C10.5508 10.8571 10.5951 10.8883 10.6007 11.0078C10.6007 11.0805 10.6228 11.3246 10.645 11.548C10.7171 12.1714 10.6783 12.1558 11.9751 12.1558C12.5737 12.1558 13.0891 12.135 13.1223 12.1143C13.2442 12.0363 13.2997 11.8545 13.3385 11.3922C13.3606 11.1272 13.4105 10.8935 13.4438 10.8675C13.477 10.8467 13.6045 10.7948 13.7264 10.7584C13.8483 10.7169 14.0922 10.6182 14.2751 10.5402L14.5965 10.3896L15.0399 10.7272C15.6883 11.2259 15.7105 11.2208 16.5362 10.4519C17.2401 9.80777 17.3842 9.62075 17.3343 9.42855C17.3177 9.36101 17.1514 9.14283 16.9685 8.93504C16.7856 8.73244 16.636 8.54543 16.636 8.51945C16.636 8.49868 16.708 8.33244 16.7967 8.15062C16.8854 7.96881 16.9907 7.71945 17.0239 7.59478C17.0683 7.45971 17.1292 7.3766 17.1847 7.3766C17.556 7.3766 18.282 7.25712 18.3651 7.18439C18.4538 7.11166 18.4649 6.99218 18.4649 6.06751C18.4649 4.81556 18.4926 4.86231 17.7666 4.81036C17.495 4.78958 17.2345 4.76361 17.1847 4.74803C17.1348 4.73244 17.035 4.58179 16.9685 4.39997C16.902 4.22335 16.7856 3.974 16.7191 3.84413L16.5917 3.61036L16.9464 3.19997C17.4784 2.59738 17.4729 2.58699 16.5972 1.75582C16.2093 1.38699 15.8324 1.0753 15.7604 1.05452C15.583 1.01296 15.4445 1.08569 15.0177 1.42335C14.8127 1.58439 14.6242 1.71426 14.5965 1.71426C14.5633 1.71426 14.4136 1.65192 14.2529 1.5792C14.0977 1.50647 13.8428 1.40257 13.6821 1.35582L13.3939 1.26231L13.3385 0.706468C13.2941 0.249325 13.2609 0.135038 13.1777 0.0727015C13.0891 0.0155582 12.8286 -2.57492e-05 11.9807 -2.57492e-05C10.9609 -2.57492e-05 10.8833 0.00516891 10.7891 0.10387ZM12.5626 1.25192C12.6291 1.84932 12.69 1.93244 13.1112 2.02075C13.2775 2.05712 13.6599 2.19738 13.9592 2.33764C14.2584 2.48309 14.5799 2.59738 14.6741 2.59738C14.8016 2.59738 14.9401 2.51945 15.2339 2.29088L15.6218 1.98439L15.971 2.31166C16.2868 2.61296 16.3146 2.65452 16.2425 2.73764C16.1982 2.78958 16.0485 2.96621 15.9044 3.13244C15.7548 3.29868 15.6384 3.48049 15.6384 3.53764C15.6384 3.58958 15.7493 3.83374 15.8878 4.0779C16.0208 4.31686 16.1982 4.71166 16.2758 4.95062C16.442 5.46491 16.4642 5.48049 17.1514 5.53244L17.6336 5.5688V6.05712V6.54023L17.3842 6.56621C17.2456 6.58179 17.0184 6.61296 16.8743 6.62855C16.7247 6.64413 16.564 6.68049 16.5141 6.70647C16.4587 6.73244 16.3589 6.94023 16.2758 7.19478C16.1982 7.43894 16.0208 7.83893 15.8823 8.08309C15.7049 8.39997 15.644 8.56101 15.6717 8.63894C15.6938 8.70127 15.8546 8.91426 16.0319 9.11686L16.3534 9.48049L16.0097 9.80257C15.8213 9.98439 15.6551 10.1298 15.6384 10.1298C15.6218 10.1298 15.4278 9.98958 15.2061 9.81816C14.9678 9.63634 14.7462 9.50647 14.6686 9.50647C14.5965 9.50647 14.3582 9.59997 14.131 9.70906C13.6876 9.93244 13.405 10.0415 13.0614 10.1246C12.6568 10.2234 12.6291 10.2649 12.5626 10.8675L12.5071 11.4026L11.9973 11.4182L11.4929 11.4337L11.4597 11.2363C11.4431 11.1272 11.4154 10.8935 11.3932 10.7117C11.3766 10.5298 11.3211 10.348 11.2713 10.2909C11.2158 10.2389 10.9886 10.1402 10.7614 10.0779C10.5342 10.0156 10.1407 9.86491 9.89129 9.73504C9.63635 9.61036 9.37587 9.50647 9.30937 9.50647C9.23732 9.50647 9.00455 9.64153 8.77733 9.81816C8.5501 9.98958 8.35059 10.1298 8.33396 10.1298C8.31179 10.1298 8.14553 9.98439 7.9571 9.81296L7.61349 9.49088L7.94047 9.12205C8.12336 8.91945 8.28963 8.69608 8.30625 8.62855C8.32842 8.53504 8.26746 8.37919 8.08457 8.05712C7.94602 7.81296 7.77975 7.43374 7.70771 7.22075C7.52482 6.63894 7.5747 6.6701 6.59375 6.5714L6.27231 6.54023V6.05192V5.5688L6.80435 5.53244C7.45831 5.48569 7.54144 5.42854 7.70771 4.89348C7.77421 4.68569 7.94047 4.31686 8.07348 4.0779C8.21204 3.83374 8.32288 3.59478 8.32288 3.53764C8.32288 3.48049 8.17324 3.26751 7.99035 3.05452C7.80746 2.84673 7.65783 2.66491 7.65783 2.64932C7.65783 2.63374 7.81301 2.4779 8.00698 2.30127L8.35059 1.97919L8.73853 2.28569C9.01564 2.50387 9.17082 2.59218 9.2872 2.59738C9.37587 2.59738 9.70286 2.48309 10.0077 2.33764C10.318 2.19738 10.7171 2.04673 10.8999 2.00517C11.0828 1.95842 11.2602 1.88569 11.2934 1.84413C11.3322 1.79738 11.3766 1.61556 11.3987 1.43894C11.4154 1.26231 11.4431 1.02855 11.4597 0.919455L11.4929 0.722052L11.9973 0.737637L12.5071 0.753221L12.5626 1.25192Z" fill="#0668E3"/>
<path d="M11.4542 2.44163C10.6616 2.54552 9.93564 2.8728 9.34263 3.39228C8.56674 4.0728 8.16217 4.89358 8.11229 5.87539C8.01808 7.93254 9.59203 9.58448 11.759 9.69877C13.4937 9.79228 15.0399 8.84682 15.6495 7.31435C15.7992 6.94552 15.8269 6.79487 15.849 6.24942C15.8767 5.47539 15.7825 5.00786 15.4722 4.42604C14.9678 3.49617 14.0202 2.77409 12.9672 2.52474C12.5515 2.42604 11.8643 2.38968 11.4542 2.44163ZM12.812 3.30396C13.8206 3.5689 14.6852 4.38968 14.9457 5.32474C15.0565 5.72474 15.051 6.44682 14.9401 6.81046C14.5522 8.05202 13.3218 8.93513 11.9807 8.93513C11.1881 8.93513 10.4455 8.63903 9.84696 8.08319C9.06553 7.36111 8.75517 6.34293 9.02119 5.38189C9.45348 3.80267 11.1604 2.8676 12.812 3.30396Z" fill="#0668E3"/>
<path d="M12.4185 5.58951L11.5871 6.34276L11.1604 5.98432C10.6727 5.57393 10.6006 5.54276 10.379 5.61548C10.185 5.67782 10.0742 5.91678 10.1517 6.09341C10.1739 6.15574 10.4566 6.45185 10.778 6.74276C11.5982 7.50639 11.4874 7.52717 12.7454 6.38951C13.2996 5.89081 13.7763 5.42328 13.8095 5.35055C13.8816 5.18432 13.8095 4.96613 13.6488 4.88821C13.3717 4.74795 13.2775 4.80509 12.4185 5.58951Z" fill="#0668E3"/>
<path d="M16.7579 14.0519C16.5972 14.0935 16.0596 14.3377 15.5553 14.5974L14.6464 15.0649H13.743C12.5071 15.0649 12.0028 14.9974 11.4541 14.7688C11.2103 14.6701 10.85 14.5299 10.6505 14.4571C9.29826 13.974 7.51371 14.1403 6.32217 14.8623C6.12819 14.9818 5.74579 15.2623 5.46869 15.4857C5.01978 15.8597 4.53207 16.1506 4.47111 16.0935C4.45449 16.0831 4.36027 15.8026 4.25497 15.4805C4.14413 15.1429 4.0222 14.8571 3.96124 14.8208C3.88919 14.7688 3.45691 14.7532 2.01043 14.7636L0.159373 14.7792L0.0540732 14.9143C-0.0512264 15.0493 -0.0512264 15.0545 0.508524 19.4078C0.879843 22.2442 1.10153 23.8078 1.15141 23.8805L1.22899 24H3.96678C6.54385 24 6.70457 23.9948 6.7877 23.9065C6.9318 23.761 6.90409 23.6208 6.5771 22.6182C6.41084 22.1039 6.27229 21.6623 6.27229 21.6364C6.27229 21.5792 8.1566 20.4519 8.39491 20.3688C8.48358 20.3377 8.62767 20.3117 8.71635 20.3117C8.81056 20.3117 9.89681 20.4883 11.1382 20.7117C13.2609 21.0857 13.4382 21.1065 14.1698 21.1065C15.0066 21.1117 15.5664 21.0182 16.2425 20.7584C16.575 20.6338 23.7132 16.0935 23.9127 15.8857C24.0457 15.7351 24.0291 15.5896 23.8462 15.3091C23.4915 14.7896 22.7212 14.4519 22.0063 14.5091C21.7957 14.5247 21.5186 14.587 21.38 14.6442C21.1417 14.7377 21.1306 14.7429 21.0419 14.6494C20.9921 14.5974 20.7981 14.4779 20.6097 14.3844C20.3325 14.2493 20.1885 14.213 19.8448 14.1922C19.4791 14.1714 19.3793 14.187 19.1188 14.2961L18.8196 14.426L18.6311 14.3117C18.1102 14.0104 17.3343 13.9013 16.7579 14.0519ZM17.8552 14.8364C17.894 14.8727 17.7278 14.9766 17.3731 15.1584L16.841 15.4286L16.5418 15.2935L16.2425 15.1532L16.4808 15.0234C16.6138 14.9558 16.8078 14.8675 16.9131 14.826C17.1292 14.7481 17.7666 14.7532 17.8552 14.8364ZM10.124 15.1169C10.3402 15.1792 10.6505 15.2987 10.8223 15.3818C11.6093 15.7506 11.6536 15.7558 13.7818 15.7922C15.9598 15.8338 16.043 15.8442 16.4863 16.2078C16.7247 16.4052 17.0239 16.8468 16.9574 16.9091C16.9408 16.9299 16.3921 16.9195 15.7437 16.8935C14.4579 16.8416 13.0558 16.8935 12.823 16.9974C12.6512 17.0753 12.557 17.2779 12.6124 17.4753C12.6734 17.7091 12.823 17.7351 13.7652 17.6727C14.3305 17.6312 14.929 17.6312 15.5553 17.6623C16.0762 17.6883 16.7634 17.7091 17.0904 17.7143C17.6613 17.7143 17.6834 17.7091 17.7943 17.5792C17.8608 17.5013 17.9107 17.4026 17.9107 17.3558C17.9107 17.2364 21.6959 15.3247 22.0063 15.2883C22.2667 15.2571 22.6436 15.3403 22.832 15.4701C22.954 15.5584 22.9262 15.5792 19.5456 17.7558C15.8823 20.1195 15.8435 20.1403 14.9013 20.2909C14.1753 20.4104 13.8151 20.374 11.238 19.9273C9.99102 19.7091 8.84381 19.5325 8.68864 19.5325C8.25081 19.5377 7.92383 19.6727 6.94288 20.2545C6.44409 20.5455 6.01735 20.7688 5.99518 20.7429C5.96193 20.7117 5.1805 18.3584 4.74267 16.9766C4.72051 16.9143 4.80364 16.8519 5.06411 16.7325C5.25809 16.6494 5.61278 16.4156 5.85109 16.2234C6.74337 15.4961 7.19227 15.2519 7.96817 15.0649C8.56117 14.9247 9.55874 14.9506 10.124 15.1169ZM20.1663 15.0545L20.3436 15.1429L19.0357 15.8026L17.7222 16.4623L17.5948 16.2494C17.5227 16.1351 17.4784 16.026 17.495 16.0052C17.5116 15.9896 17.9827 15.7506 18.5369 15.4701C19.6287 14.9195 19.8061 14.8727 20.1663 15.0545ZM3.52896 15.9325C3.61209 16.187 4.17184 17.9169 4.78147 19.7818C5.38556 21.6468 5.88434 23.1948 5.88434 23.2208C5.88434 23.2519 5.13616 23.2727 3.86148 23.2727C2.04368 23.2727 1.83862 23.2623 1.83862 23.1896C1.83862 23.0961 0.913096 15.9013 0.868759 15.6468L0.835507 15.4805H2.11019H3.38486L3.52896 15.9325Z" fill="#0668E3"/>
<path d="M3.44585 21.1897C3.01357 21.3144 2.73092 21.6105 2.64779 22.0209C2.57574 22.4053 2.83068 22.878 3.22417 23.065C3.59549 23.2417 4.16078 23.1741 4.46005 22.9196C4.74824 22.6754 4.86462 22.1196 4.69836 21.7508C4.50993 21.3248 3.91139 21.0598 3.44585 21.1897ZM3.83934 21.9741C4.0444 22.078 3.92247 22.4261 3.6897 22.3793C3.63982 22.3689 3.56223 22.3118 3.5179 22.2495C3.44585 22.1508 3.45139 22.1248 3.55115 22.0313C3.68416 21.9066 3.69524 21.9066 3.83934 21.9741Z" fill="#0668E3"/>
</svg>
