<svg width="16" height="15" viewBox="0 0 16 15" fill="none" xmlns="http://www.w3.org/2000/svg">
<path d="M6.74347 1.73798C7.06327 0.420672 8.93673 0.420673 9.25653 1.73798C9.46312 2.58895 10.4381 2.99278 11.1859 2.53714C12.3435 1.83179 13.6682 3.15653 12.9629 4.31414C12.5072 5.06194 12.9111 6.03688 13.762 6.24347C15.0793 6.56327 15.0793 8.43673 13.762 8.75653C12.9111 8.96312 12.5072 9.93806 12.9629 10.6859C13.6682 11.8435 12.3435 13.1682 11.1859 12.4629C10.4381 12.0072 9.46312 12.4111 9.25653 13.262C8.93673 14.5793 7.06327 14.5793 6.74347 13.262C6.53688 12.4111 5.56194 12.0072 4.81414 12.4629C3.65653 13.1682 2.33179 11.8435 3.03714 10.6859C3.49278 9.93806 3.08895 8.96312 2.23798 8.75653C0.920673 8.43673 0.920672 6.56327 2.23798 6.24347C3.08895 6.03688 3.49278 5.06194 3.03714 4.31414C2.33179 3.15653 3.65653 1.83179 4.81414 2.53714C5.56194 2.99278 6.53688 2.58895 6.74347 1.73798Z" stroke="#333333" stroke-linecap="round" stroke-linejoin="round"/>
<path d="M10.25 7.5C10.25 8.74264 9.24264 9.75 8 9.75C6.75736 9.75 5.75 8.74264 5.75 7.5C5.75 6.25736 6.75736 5.25 8 5.25C9.24264 5.25 10.25 6.25736 10.25 7.5Z" stroke="#333333" stroke-linecap="round" stroke-linejoin="round"/>
</svg>
