<svg width="24" height="24" viewBox="0 0 24 24" fill="none" xmlns="http://www.w3.org/2000/svg">
<path d="M21.6004 3.5999C21.6004 3.18401 21.385 2.79777 21.0313 2.57912C20.6775 2.36047 20.2357 2.3406 19.8637 2.52659L10.5171 7.1999H6.00039C4.01217 7.1999 2.40039 8.81168 2.40039 10.7999C2.40039 12.7881 4.01217 14.3999 6.00039 14.3999H6.33549L8.46198 20.7794C8.62532 21.2694 9.08388 21.5999 9.6004 21.5999H10.8004C11.4631 21.5999 12.0004 21.0626 12.0004 20.3999V15.1416L19.8637 19.0732C20.2357 19.2592 20.6775 19.2393 21.0313 19.0207C21.385 18.802 21.6004 18.4158 21.6004 17.9999V3.5999Z" fill="white"/>
</svg>
