<svg width="14" height="14" viewBox="0 0 14 14" fill="none" xmlns="http://www.w3.org/2000/svg">
<path d="M6.14405 1.03448C6.41346 0.205303 7.58653 0.205303 7.85595 1.03448L8.81856 3.9971C8.93905 4.36792 9.28461 4.61898 9.67451 4.61898H12.7896C13.6614 4.61898 14.0239 5.73464 13.3186 6.2471L10.7984 8.0781C10.483 8.30728 10.351 8.71351 10.4715 9.08433L11.4341 12.0469C11.7035 12.8761 10.7545 13.5656 10.0492 13.0532L7.529 11.2222C7.21356 10.993 6.78643 10.993 6.47099 11.2222L3.95084 13.0532C3.24549 13.5656 2.29646 12.8761 2.56588 12.0469L3.52849 9.08433C3.64898 8.71351 3.51699 8.30728 3.20155 8.0781L0.681396 6.2471C-0.0239462 5.73464 0.338552 4.61898 1.2104 4.61898H4.32548C4.71539 4.61898 5.06095 4.36792 5.18143 3.9971L6.14405 1.03448Z" fill="#FFB701"/>
</svg>
