<svg width="30" height="30" viewBox="0 0 30 30" fill="none" xmlns="http://www.w3.org/2000/svg">
<g id="Icon/Outline/star" clip-path="url(#clip0_1188_2115)">
<path id="Icon" d="M15 3.23569L17.1924 9.98247C17.4602 10.8064 18.2281 11.3643 19.0945 11.3644L26.1885 11.3646L20.4495 15.5346C19.7486 16.0439 19.4553 16.9466 19.723 17.7706L21.9149 24.5175L16.1755 20.348C15.4746 19.8387 14.5254 19.8387 13.8245 20.348L8.08511 24.5175L10.277 17.7706C10.5447 16.9466 10.2514 16.0439 9.55054 15.5346L8.96272 16.3436L9.55054 15.5346L3.81148 11.3646L10.9055 11.3644C11.7719 11.3643 12.5398 10.8064 12.8076 9.98247L15 3.23569Z" stroke="#FFB701" stroke-width="2"/>
</g>
<defs>
<clipPath id="clip0_1188_2115">
<rect width="30" height="30" fill="white"/>
</clipPath>
</defs>
</svg>
