<svg width="25" height="24" viewBox="0 0 25 24" fill="none" xmlns="http://www.w3.org/2000/svg">
<path d="M17.5 20H22.5V18C22.5 16.3431 21.1569 15 19.5 15C18.5444 15 17.6931 15.4468 17.1438 16.1429M17.5 20H7.5M17.5 20V18C17.5 17.3438 17.3736 16.717 17.1438 16.1429M7.5 20H2.5V18C2.5 16.3431 3.84315 15 5.5 15C6.45561 15 7.30686 15.4468 7.85625 16.1429M7.5 20V18C7.5 17.3438 7.62642 16.717 7.85625 16.1429M7.85625 16.1429C8.5935 14.301 10.3948 13 12.5 13C14.6052 13 16.4065 14.301 17.1438 16.1429M15.5 7C15.5 8.65685 14.1569 10 12.5 10C10.8431 10 9.5 8.65685 9.5 7C9.5 5.34315 10.8431 4 12.5 4C14.1569 4 15.5 5.34315 15.5 7ZM21.5 10C21.5 11.1046 20.6046 12 19.5 12C18.3954 12 17.5 11.1046 17.5 10C17.5 8.89543 18.3954 8 19.5 8C20.6046 8 21.5 8.89543 21.5 10ZM7.5 10C7.5 11.1046 6.60457 12 5.5 12C4.39543 12 3.5 11.1046 3.5 10C3.5 8.89543 4.39543 8 5.5 8C6.60457 8 7.5 8.89543 7.5 10Z" stroke="white" stroke-linecap="round" stroke-linejoin="round"/>
</svg>
