<svg width="24" height="24" viewBox="0 0 24 24" fill="none" xmlns="http://www.w3.org/2000/svg">
<g id="Icon/Solid/user-circle">
<path id="Icon" fill-rule="evenodd" clip-rule="evenodd" d="M21.5999 12C21.5999 17.3019 17.3018 21.6 11.9999 21.6C6.69797 21.6 2.3999 17.3019 2.3999 12C2.3999 6.69806 6.69797 2.39999 11.9999 2.39999C17.3018 2.39999 21.5999 6.69806 21.5999 12ZM14.3999 8.39999C14.3999 9.72548 13.3254 10.8 11.9999 10.8C10.6744 10.8 9.5999 9.72548 9.5999 8.39999C9.5999 7.07451 10.6744 5.99999 11.9999 5.99999C13.3254 5.99999 14.3999 7.07451 14.3999 8.39999ZM11.9998 13.2C9.57877 13.2 7.49264 14.6339 6.54438 16.6989C7.86474 18.2304 9.81908 19.2 11.9999 19.2C14.1806 19.2 16.1349 18.2305 17.4553 16.699C16.5071 14.634 14.4209 13.2 11.9998 13.2Z" fill="white"/>
</g>
</svg>
