<svg width="25" height="24" viewBox="0 0 25 24" fill="none" xmlns="http://www.w3.org/2000/svg">
<path d="M6.5 3.59961C5.17452 3.59961 4.1 4.67413 4.1 5.99961V8.39961C4.1 9.72509 5.17451 10.7996 6.5 10.7996H8.9C10.2255 10.7996 11.3 9.72509 11.3 8.39961V5.99961C11.3 4.67413 10.2255 3.59961 8.9 3.59961H6.5Z" fill="white"/>
<path d="M6.5 13.1996C5.17452 13.1996 4.1 14.2741 4.1 15.5996V17.9996C4.1 19.3251 5.17451 20.3996 6.5 20.3996H8.9C10.2255 20.3996 11.3 19.3251 11.3 17.9996V15.5996C11.3 14.2741 10.2255 13.1996 8.9 13.1996H6.5Z" fill="white"/>
<path d="M13.7 5.99961C13.7 4.67413 14.7745 3.59961 16.1 3.59961H18.5C19.8255 3.59961 20.9 4.67413 20.9 5.99961V8.39961C20.9 9.72509 19.8255 10.7996 18.5 10.7996H16.1C14.7745 10.7996 13.7 9.72509 13.7 8.39961V5.99961Z" fill="white"/>
<path d="M13.7 15.5996C13.7 14.2741 14.7745 13.1996 16.1 13.1996H18.5C19.8255 13.1996 20.9 14.2741 20.9 15.5996V17.9996C20.9 19.3251 19.8255 20.3996 18.5 20.3996H16.1C14.7745 20.3996 13.7 19.3251 13.7 17.9996V15.5996Z" fill="white"/>
</svg>
