<svg width="25" height="24" viewBox="0 0 25 24" fill="none" xmlns="http://www.w3.org/2000/svg">
<g id="Icon/Solid/view-grid">
<g id="Icon">
<path d="M6.5001 3.6C5.17461 3.6 4.1001 4.67451 4.1001 6V8.4C4.1001 9.72548 5.17461 10.8 6.5001 10.8H8.9001C10.2256 10.8 11.3001 9.72548 11.3001 8.4V6C11.3001 4.67452 10.2256 3.6 8.9001 3.6H6.5001Z" fill="white"/>
<path d="M6.5001 13.2C5.17461 13.2 4.1001 14.2745 4.1001 15.6V18C4.1001 19.3255 5.17461 20.4 6.5001 20.4H8.9001C10.2256 20.4 11.3001 19.3255 11.3001 18V15.6C11.3001 14.2745 10.2256 13.2 8.9001 13.2H6.5001Z" fill="white"/>
<path d="M13.7001 6C13.7001 4.67451 14.7746 3.6 16.1001 3.6H18.5001C19.8256 3.6 20.9001 4.67452 20.9001 6V8.4C20.9001 9.72548 19.8256 10.8 18.5001 10.8H16.1001C14.7746 10.8 13.7001 9.72548 13.7001 8.4V6Z" fill="white"/>
<path d="M13.7001 15.6C13.7001 14.2745 14.7746 13.2 16.1001 13.2H18.5001C19.8256 13.2 20.9001 14.2745 20.9001 15.6V18C20.9001 19.3255 19.8256 20.4 18.5001 20.4H16.1001C14.7746 20.4 13.7001 19.3255 13.7001 18V15.6Z" fill="white"/>
</g>
</g>
</svg>
